HIERARCHY
ROOT Pelvis
{
	OFFSET 0.000000 0.000000 0.000000
	CHANNELS 6 Xposition Yposition Zposition Xrotation Yrotation Zrotation
	JOINT LeftUpLeg_virtual
	{
		OFFSET 0.000000 0.000000 0.000000
		CHANNELS 3 Xrotation Yrotation Zrotation
		JOINT LeftUpLeg
		{
			OFFSET 18.735201 -5.666702 -4.541200
			CHANNELS 3 Xrotation Yrotation Zrotation
			JOINT LeftLeg
			{
				OFFSET -0.021200 -31.938179 0.493100
				CHANNELS 3 Xrotation Yrotation Zrotation
				JOINT LeftFoot
				{
					OFFSET 0.021200 -31.938179 -4.336299
					CHANNELS 3 Xrotation Yrotation Zrotation
					JOINT LeftToeBase
					{
						OFFSET 0.943001 -26.722000 15.023500
						CHANNELS 3 Xrotation Yrotation Zrotation
						End Site
						{
							OFFSET 0 0 0
						}
					}
				}
			}
		}
	}
	JOINT RightUpLeg_virtual
	{
		OFFSET 0.000000 0.000000 0.000000
		CHANNELS 3 Xrotation Yrotation Zrotation
		JOINT RightUpLeg
		{
			OFFSET -18.735201 -5.666702 -4.541200
			CHANNELS 3 Xrotation Yrotation Zrotation
			JOINT RightLeg
			{
				OFFSET 0.018946 -31.938133 0.493100
				CHANNELS 3 Xrotation Yrotation Zrotation
				JOINT RightFoot
				{
					OFFSET -0.018946 -31.938126 -4.336299
					CHANNELS 3 Xrotation Yrotation Zrotation
					JOINT RightToeBase
					{
						OFFSET -0.943001 -26.722004 15.023500
						CHANNELS 3 Xrotation Yrotation Zrotation
						End Site
						{
							OFFSET 0 0 0
						}
					}
				}
			}
		}
	}
	JOINT Hips_virtual
	{
		OFFSET 0.000000 0.000000 0.000000
		CHANNELS 3 Xrotation Yrotation Zrotation
		JOINT Hips
		{
			OFFSET -0.000000 -0.000000 -0.000000
			CHANNELS 3 Xrotation Yrotation Zrotation
			JOINT Spine
			{
				OFFSET 0.000000 10.199997 -0.299500
				CHANNELS 3 Xrotation Yrotation Zrotation
				JOINT Spine1
				{
					OFFSET 0.000000 11.900002 -1.516600
					CHANNELS 3 Xrotation Yrotation Zrotation
					JOINT Spine2
					{
						OFFSET 0.000000 13.600006 -2.842500
						CHANNELS 3 Xrotation Yrotation Zrotation
						JOINT Neck_virtual
						{
							OFFSET 0.000000 0.000000 0.000000
							CHANNELS 3 Xrotation Yrotation Zrotation
							JOINT Neck
							{
								OFFSET 0.000000 9.624100 -2.890100
								CHANNELS 3 Xrotation Yrotation Zrotation
								JOINT Head
								{
									OFFSET 0.000000 14.068802 -1.351900
									CHANNELS 3 Xrotation Yrotation Zrotation
									End Site
									{
										OFFSET 0 0 0
									}
								}
							}
						}
						JOINT LeftShoulder_virtual
						{
							OFFSET 0.000000 0.000000 0.000000
							CHANNELS 3 Xrotation Yrotation Zrotation
							JOINT LeftShoulder
							{
								OFFSET 15.263000 10.923401 -0.547700
								CHANNELS 3 Xrotation Yrotation Zrotation
								JOINT LeftArm
								{
									OFFSET 25.438599 -2.830597 -13.032500
									CHANNELS 3 Xrotation Yrotation Zrotation
									JOINT LeftForeArm
									{
										OFFSET 29.960503 0.000000 0.000000
										CHANNELS 3 Xrotation Yrotation Zrotation
										JOINT LeftHand
										{
											OFFSET 27.849251 0.000000 0.000000
											CHANNELS 3 Xrotation Yrotation Zrotation
											End Site
											{
												OFFSET 0 0 0
											}
										}
									}
								}
							}
						}
						JOINT RightShoulder_virtual
						{
							OFFSET 0.000000 0.000000 0.000000
							CHANNELS 3 Xrotation Yrotation Zrotation
							JOINT RightShoulder
							{
								OFFSET -15.263000 10.923401 -0.547700
								CHANNELS 3 Xrotation Yrotation Zrotation
								JOINT RightArm
								{
									OFFSET -25.438599 -2.830597 -13.032500
									CHANNELS 3 Xrotation Yrotation Zrotation
									JOINT RightForeArm
									{
										OFFSET -29.960503 0.000000 0.000000
										CHANNELS 3 Xrotation Yrotation Zrotation
										JOINT RightHand
										{
											OFFSET -27.849251 0.000000 0.000000
											CHANNELS 3 Xrotation Yrotation Zrotation
											End Site
											{
												OFFSET 0 0 0
											}
										}
									}
								}
							}
						}
					}
				}
			}
		}
	}
}
MOTION
Frames: 10
Frame Time: 0.03333333
-18.103920 141.084198 12.042412 0.000000 0.000000 0.000000 8.443348 -24.351252 0.628869 -132.320039 -30.630400 36.327877 122.783825 -14.540657 -11.489216 16.658171 -4.783685 -20.766779 0.000000 0.000000 0.000000 7.520967 -21.371812 -0.830524 -92.618526 27.650996 -55.190743 129.357581 9.803675 15.649804 -8.556990 17.729086 36.514840 0.000000 0.000000 0.000000 6.051169 -20.450150 -0.431011 -0.712033 0.236829 0.185033 20.408438 1.297528 -1.486700 12.746624 2.729429 -0.020145 0.000000 0.000000 0.000000 5.441956 3.384177 1.603333 5.906408 -2.515565 -0.202914 0.000000 0.000000 0.000000 10.492933 2.528984 3.046539 1.531076 -9.144878 12.718325 -40.505795 37.983409 25.230869 -6.111532 -35.669457 -13.218585 0.000000 0.000000 0.000000 4.666773 4.531959 2.501312 -0.257556 2.882414 -26.567293 -42.787426 -22.388242 -16.792469 28.304290 65.211743 -24.257485 0.000000 0.000000 0.000000 
-18.548794 139.175400 13.761543 0.000000 0.000000 0.000000 9.378578 -21.579779 -0.460261 -137.039877 -30.621504 31.320338 124.312407 -13.790721 -13.241555 21.231925 -3.732744 -19.450063 0.000000 0.000000 0.000000 8.248029 -19.009663 -2.302961 -84.304041 17.083256 -57.425048 123.978862 8.924226 18.824117 -14.455795 11.594676 38.579500 0.000000 0.000000 0.000000 7.015377 -19.255956 -1.367396 -0.636742 0.185601 0.072397 19.939089 1.763209 0.390962 12.326488 2.453982 -0.575146 0.000000 0.000000 0.000000 5.696073 3.125323 1.111086 6.782315 -2.675774 -0.402512 0.000000 0.000000 0.000000 10.133972 2.257432 2.541203 2.001773 -7.379091 11.643778 -39.215586 33.535515 28.122858 -5.110887 -31.195325 -10.990560 0.000000 0.000000 0.000000 4.522256 4.308296 1.826764 0.173915 1.782423 -30.874214 -37.512830 -23.536183 -14.294456 26.983110 57.787348 -24.307014 0.000000 0.000000 0.000000 
-18.595318 135.986649 14.398907 0.000000 0.000000 0.000000 9.317771 -18.490545 -1.855825 -136.942165 -29.476935 29.439519 123.565909 -12.105107 -16.207878 23.664155 -1.545825 -16.097721 0.000000 0.000000 0.000000 8.378544 -16.344894 -3.848256 -75.050931 6.582118 -53.994756 116.766537 7.412595 21.473521 -20.388688 6.885373 40.282967 0.000000 0.000000 0.000000 7.530152 -17.606022 -2.497347 -0.596563 0.112773 -0.069968 20.047693 1.809526 1.833729 11.279561 1.958168 -1.017020 0.000000 0.000000 0.000000 5.472929 2.715156 0.622439 7.360311 -2.740083 -0.608313 0.000000 0.000000 0.000000 9.268182 1.808726 2.081317 2.079348 -5.308637 10.253469 -36.651581 27.494336 29.318225 -4.675947 -26.025551 -9.202349 0.000000 0.000000 0.000000 4.049405 3.863007 1.113481 0.888442 1.932871 -32.544564 -31.335194 -22.103568 -9.789042 26.140495 51.881673 -24.452096 0.000000 0.000000 0.000000 
-18.223122 131.866516 13.625061 0.000000 0.000000 0.000000 8.286365 -15.617958 -3.273282 -131.911307 -26.671687 29.606623 119.798704 -8.388974 -19.994878 26.430687 3.780264 -8.083081 0.000000 0.000000 0.000000 7.879354 -14.325970 -4.908322 -66.888910 -1.218779 -47.056506 108.933669 5.263348 22.504053 -21.764020 5.297801 40.251681 0.000000 0.000000 0.000000 7.624849 -15.471727 -3.461213 -0.614947 0.016458 -0.119072 20.501311 1.553428 2.350742 9.694427 1.435747 -1.232645 0.000000 0.000000 0.000000 4.722501 2.281575 0.420624 7.654476 -2.730746 -0.810182 0.000000 0.000000 0.000000 7.991787 1.322016 1.919857 1.905938 -2.728548 8.644337 -32.996183 22.077224 29.414814 -4.653839 -20.383006 -7.925734 0.000000 0.000000 0.000000 3.456731 3.311506 0.573185 1.544262 2.676651 -31.472665 -26.265682 -20.363191 -4.588108 25.547679 47.848327 -24.317593 0.000000 0.000000 0.000000 
-17.729403 126.969559 11.871922 0.000000 0.000000 0.000000 6.791372 -13.371000 -4.572697 -121.797846 -22.327508 28.674538 113.232631 -1.741028 -23.263189 30.119464 12.663096 4.465864 0.000000 0.000000 0.000000 7.001277 -12.704413 -5.320345 -60.078556 -5.790086 -39.231678 101.747935 2.683980 21.358456 -18.300396 6.390331 36.698415 0.000000 0.000000 0.000000 7.249326 -13.274333 -4.059679 -0.673898 0.015386 -0.066018 20.837630 1.287514 2.019520 7.989342 1.006174 -1.184473 0.000000 0.000000 0.000000 3.665776 1.830847 0.548485 7.689487 -2.694694 -0.997491 0.000000 0.000000 0.000000 6.802173 0.899875 2.065696 1.669844 0.199181 6.755002 -28.514477 19.224694 27.993520 -4.899578 -15.023399 -7.274011 0.000000 0.000000 0.000000 2.974653 2.694167 0.221044 1.826226 3.430354 -28.368504 -22.634699 -20.523549 0.720729 24.790996 45.495183 -23.539289 0.000000 0.000000 0.000000 
-17.144005 121.344757 9.163544 0.000000 0.000000 0.000000 5.277975 -11.632217 -5.572129 -106.449407 -17.454045 24.957211 104.161744 7.120417 -24.463371 31.956857 22.344114 17.931984 0.000000 0.000000 0.000000 5.826512 -11.097440 -5.334559 -52.821671 -8.295453 -31.254478 93.509306 -0.281302 19.122513 -12.831219 8.121709 28.999446 0.000000 0.000000 0.000000 6.302122 -11.006112 -4.499254 -0.749979 0.048491 0.066976 21.085426 1.107155 1.402486 6.491232 0.628405 -1.018817 0.000000 0.000000 0.000000 2.744404 1.389668 0.928220 7.569738 -2.705511 -1.062117 0.000000 0.000000 0.000000 6.047815 0.542094 2.348175 1.467406 3.263696 4.733314 -22.576017 19.521656 23.562558 -5.378948 -10.706173 -7.200174 0.000000 0.000000 0.000000 2.850652 2.127936 -0.036062 1.570980 3.305681 -24.339990 -18.445812 -23.508910 7.600487 24.099916 44.022874 -22.195453 0.000000 0.000000 0.000000 
-16.729679 114.881760 5.576611 0.000000 0.000000 0.000000 3.608287 -9.761879 -6.202027 -88.079551 -14.436901 18.366753 93.052653 15.571189 -22.168202 28.354268 26.965669 29.326753 0.000000 0.000000 0.000000 4.315723 -9.590226 -5.194059 -43.968499 -9.849640 -23.200259 82.253776 -2.915244 16.691990 -13.166913 8.526284 20.782524 0.000000 0.000000 0.000000 4.847768 -8.941673 -4.994547 -0.790422 0.077380 0.094715 21.494026 0.815159 1.216819 5.152830 0.205539 -1.043677 0.000000 0.000000 0.000000 2.452901 0.999993 1.259581 7.305849 -2.860386 -0.974871 0.000000 0.000000 0.000000 5.860368 0.188945 2.465672 1.349655 5.791454 2.749368 -15.647306 21.515716 14.679482 -5.917360 -7.368114 -7.452978 0.000000 0.000000 0.000000 3.281730 1.627824 -0.406611 1.023445 1.792435 -20.625199 -11.601053 -27.848300 18.209173 23.660308 42.735117 -20.707793 0.000000 0.000000 0.000000 
-16.162476 107.326004 2.290974 0.000000 0.000000 0.000000 1.775112 -8.001058 -6.495279 -70.843152 -14.002487 11.985555 82.493584 20.277379 -17.469951 20.175233 23.791565 36.668878 0.000000 0.000000 0.000000 2.348824 -7.918781 -5.017851 -33.908693 -11.148108 -15.828347 67.591101 -4.633637 14.118310 -21.736580 9.333238 14.986268 0.000000 0.000000 0.000000 2.894181 -7.204170 -5.404312 -0.800953 0.091103 0.021173 22.188462 0.094185 1.440975 4.274583 -0.253313 -1.395130 0.000000 0.000000 0.000000 2.992467 0.661312 1.248706 6.846767 -3.171810 -0.752774 0.000000 0.000000 0.000000 6.272535 -0.142704 2.228784 1.205649 7.434995 1.285128 -8.460343 22.631101 0.920902 -6.599233 -5.449150 -7.944280 0.000000 0.000000 0.000000 4.164882 1.225135 -1.004959 0.443952 -0.913151 -18.047124 -2.055143 -29.573667 33.450203 23.877271 41.382675 -19.608280 0.000000 0.000000 0.000000 
-15.581619 98.658188 -0.048256 0.000000 0.000000 0.000000 -0.178177 -6.254096 -6.448604 -59.173658 -14.019604 9.140262 76.970788 20.744437 -14.271921 9.294990 14.981528 39.103253 0.000000 0.000000 0.000000 0.032545 -6.606250 -4.712892 -24.515455 -12.270772 -9.596143 52.378836 -4.512379 11.034928 -34.569394 11.536218 11.058540 0.000000 0.000000 0.000000 0.394331 -5.589914 -5.556781 -0.860573 0.054285 -0.079264 23.137068 -1.078878 1.556214 4.236428 -0.747817 -1.904371 0.000000 0.000000 0.000000 4.271284 0.402383 0.805672 6.109742 -3.620113 -0.425941 0.000000 0.000000 0.000000 7.103554 -0.370549 1.699048 0.867144 8.251476 0.864346 -3.824739 20.700136 -15.446083 -7.344712 -4.863632 -8.334766 0.000000 0.000000 0.000000 5.352263 0.994905 -1.757296 -0.022701 -4.213586 -16.727085 7.096462 -25.784377 50.245648 25.312427 40.268736 -19.592971 0.000000 0.000000 0.000000 
-14.961935 89.365860 -2.017021 0.000000 0.000000 0.000000 -2.374694 -5.585488 -5.913872 -54.361206 -12.754195 9.343824 79.052855 18.692698 -14.197019 -3.526361 4.226455 37.895945 0.000000 0.000000 0.000000 -2.413719 -5.817781 -4.115329 -19.077751 -11.877492 -5.278924 46.836448 -1.708716 7.604119 -51.487499 14.620515 5.798036 0.000000 0.000000 0.000000 -2.135724 -4.616331 -5.236590 -0.927423 0.003539 -0.178251 24.540586 -2.394169 1.179740 5.036012 -1.166679 -2.428088 0.000000 0.000000 0.000000 5.953980 0.198988 -0.003041 4.986727 -4.136100 -0.113798 0.000000 0.000000 0.000000 8.253991 -0.520465 1.054867 0.307051 8.060368 1.653731 -4.467263 15.792815 -30.889227 -8.086644 -5.978892 -8.658266 0.000000 0.000000 0.000000 6.768122 0.894677 -2.536350 -0.356794 -7.074471 -16.398880 10.765258 -17.429162 63.517740 28.158826 40.165740 -20.936639 0.000000 0.000000 0.000000 
